<?xml version="1.0" encoding="UTF-8" standalone="no"?>
<!DOCTYPE svg PUBLIC "-//W3C//DTD SVG 1.1//EN"
 "http://www.w3.org/Graphics/SVG/1.1/DTD/svg11.dtd">
<!-- Generated by graphviz version 2.43.0 (0)
 -->
<!-- Title: controllers_diagram Pages: 1 -->
<svg width="674pt" height="676pt"
 viewBox="0.00 0.00 674.00 676.00" xmlns="http://www.w3.org/2000/svg" xmlns:xlink="http://www.w3.org/1999/xlink">
<g id="graph0" class="graph" transform="scale(1 1) rotate(0) translate(4 672)">
<title>controllers_diagram</title>
<polygon fill="transparent" stroke="transparent" points="-4,4 -4,-672 670,-672 670,4 -4,4"/>
<!-- _diagram_info -->
<g id="node1" class="node">
<title>_diagram_info</title>
<text text-anchor="start" x="136" y="-287.6" font-family="Times,serif" font-size="13.00">Controllers diagram</text>
<text text-anchor="start" x="136" y="-273.6" font-family="Times,serif" font-size="13.00">Date: Apr 10 2023 &#45; 13:49</text>
<text text-anchor="start" x="136" y="-259.6" font-family="Times,serif" font-size="13.00">Migration version: 20230403071825</text>
<text text-anchor="start" x="136" y="-245.6" font-family="Times,serif" font-size="13.00">Generated by RailRoady 1.6.0</text>
<text text-anchor="start" x="136" y="-231.6" font-family="Times,serif" font-size="13.00">http://railroady.prestonlee.com</text>
</g>
<!-- ApplicationController -->
<g id="node2" class="node">
<title>ApplicationController</title>
<path fill="none" stroke="black" d="M508,-432.5C508,-432.5 654,-432.5 654,-432.5 660,-432.5 666,-438.5 666,-444.5 666,-444.5 666,-529.5 666,-529.5 666,-535.5 660,-541.5 654,-541.5 654,-541.5 508,-541.5 508,-541.5 502,-541.5 496,-535.5 496,-529.5 496,-529.5 496,-444.5 496,-444.5 496,-438.5 502,-432.5 508,-432.5"/>
<text text-anchor="middle" x="581" y="-526.3" font-family="Times,serif" font-size="14.00">ApplicationController</text>
<polyline fill="none" stroke="black" points="496,-518.5 666,-518.5 "/>
<text text-anchor="start" x="504" y="-503.3" font-family="Times,serif" font-size="14.00">authorize_request</text>
<text text-anchor="start" x="504" y="-488.3" font-family="Times,serif" font-size="14.00">not_found</text>
<polyline fill="none" stroke="black" points="496,-480.5 666,-480.5 "/>
<polyline fill="none" stroke="black" points="496,-456.5 666,-456.5 "/>
</g>
<!-- AuthenticationController -->
<g id="node3" class="node">
<title>AuthenticationController</title>
<path fill="none" stroke="black" d="M428,-128.5C428,-128.5 598,-128.5 598,-128.5 604,-128.5 610,-134.5 610,-140.5 610,-140.5 610,-209.5 610,-209.5 610,-215.5 604,-221.5 598,-221.5 598,-221.5 428,-221.5 428,-221.5 422,-221.5 416,-215.5 416,-209.5 416,-209.5 416,-140.5 416,-140.5 416,-134.5 422,-128.5 428,-128.5"/>
<text text-anchor="middle" x="513" y="-206.3" font-family="Times,serif" font-size="14.00">AuthenticationController</text>
<polyline fill="none" stroke="black" points="416,-198.5 610,-198.5 "/>
<text text-anchor="start" x="424" y="-183.3" font-family="Times,serif" font-size="14.00">login</text>
<polyline fill="none" stroke="black" points="416,-175.5 610,-175.5 "/>
<polyline fill="none" stroke="black" points="416,-151.5 610,-151.5 "/>
<text text-anchor="start" x="424" y="-136.3" font-family="Times,serif" font-size="14.00">login_params</text>
</g>
<!-- ProfilesController -->
<g id="node4" class="node">
<title>ProfilesController</title>
<path fill="none" stroke="black" d="M12,-544.5C12,-544.5 131,-544.5 131,-544.5 137,-544.5 143,-550.5 143,-556.5 143,-556.5 143,-655.5 143,-655.5 143,-661.5 137,-667.5 131,-667.5 131,-667.5 12,-667.5 12,-667.5 6,-667.5 0,-661.5 0,-655.5 0,-655.5 0,-556.5 0,-556.5 0,-550.5 6,-544.5 12,-544.5"/>
<text text-anchor="middle" x="71.5" y="-652.3" font-family="Times,serif" font-size="14.00">ProfilesController</text>
<polyline fill="none" stroke="black" points="0,-644.5 143,-644.5 "/>
<text text-anchor="start" x="8" y="-629.3" font-family="Times,serif" font-size="14.00">find</text>
<text text-anchor="start" x="8" y="-614.3" font-family="Times,serif" font-size="14.00">index</text>
<text text-anchor="start" x="8" y="-599.3" font-family="Times,serif" font-size="14.00">update</text>
<polyline fill="none" stroke="black" points="0,-591.5 143,-591.5 "/>
<polyline fill="none" stroke="black" points="0,-567.5 143,-567.5 "/>
<text text-anchor="start" x="8" y="-552.3" font-family="Times,serif" font-size="14.00">user_params</text>
</g>
<!-- RifasController -->
<g id="node5" class="node">
<title>RifasController</title>
<path fill="none" stroke="black" d="M348,-336.5C348,-336.5 449,-336.5 449,-336.5 455,-336.5 461,-342.5 461,-348.5 461,-348.5 461,-507.5 461,-507.5 461,-513.5 455,-519.5 449,-519.5 449,-519.5 348,-519.5 348,-519.5 342,-519.5 336,-513.5 336,-507.5 336,-507.5 336,-348.5 336,-348.5 336,-342.5 342,-336.5 348,-336.5"/>
<text text-anchor="middle" x="398.5" y="-504.3" font-family="Times,serif" font-size="14.00">RifasController</text>
<polyline fill="none" stroke="black" points="336,-496.5 461,-496.5 "/>
<text text-anchor="start" x="344" y="-481.3" font-family="Times,serif" font-size="14.00">actives</text>
<text text-anchor="start" x="344" y="-466.3" font-family="Times,serif" font-size="14.00">create</text>
<text text-anchor="start" x="344" y="-451.3" font-family="Times,serif" font-size="14.00">destroy</text>
<text text-anchor="start" x="344" y="-436.3" font-family="Times,serif" font-size="14.00">expireds</text>
<text text-anchor="start" x="344" y="-421.3" font-family="Times,serif" font-size="14.00">index</text>
<text text-anchor="start" x="344" y="-406.3" font-family="Times,serif" font-size="14.00">update</text>
<polyline fill="none" stroke="black" points="336,-398.5 461,-398.5 "/>
<polyline fill="none" stroke="black" points="336,-374.5 461,-374.5 "/>
<text text-anchor="start" x="344" y="-359.3" font-family="Times,serif" font-size="14.00">find_rifa</text>
<text text-anchor="start" x="344" y="-344.3" font-family="Times,serif" font-size="14.00">rifa_params</text>
</g>
<!-- RiferosController -->
<g id="node6" class="node">
<title>RiferosController</title>
<path fill="none" stroke="black" d="M316,-0.5C316,-0.5 432,-0.5 432,-0.5 438,-0.5 444,-6.5 444,-12.5 444,-12.5 444,-82.5 444,-82.5 444,-88.5 438,-94.5 432,-94.5 432,-94.5 316,-94.5 316,-94.5 310,-94.5 304,-88.5 304,-82.5 304,-82.5 304,-12.5 304,-12.5 304,-6.5 310,-0.5 316,-0.5"/>
<text text-anchor="middle" x="374" y="-79.3" font-family="Times,serif" font-size="14.00">RiferosController</text>
<polyline fill="none" stroke="black" points="304,-71.5 444,-71.5 "/>
<text text-anchor="start" x="312" y="-56.3" font-family="Times,serif" font-size="14.00">index</text>
<polyline fill="none" stroke="black" points="304,-48.5 444,-48.5 "/>
<polyline fill="none" stroke="black" points="304,-24.5 444,-24.5 "/>
</g>
<!-- StatsController -->
<g id="node7" class="node">
<title>StatsController</title>
<path fill="none" stroke="black" d="M28,-416.5C28,-416.5 131,-416.5 131,-416.5 137,-416.5 143,-422.5 143,-428.5 143,-428.5 143,-498.5 143,-498.5 143,-504.5 137,-510.5 131,-510.5 131,-510.5 28,-510.5 28,-510.5 22,-510.5 16,-504.5 16,-498.5 16,-498.5 16,-428.5 16,-428.5 16,-422.5 22,-416.5 28,-416.5"/>
<text text-anchor="middle" x="79.5" y="-495.3" font-family="Times,serif" font-size="14.00">StatsController</text>
<polyline fill="none" stroke="black" points="16,-487.5 143,-487.5 "/>
<text text-anchor="start" x="24" y="-472.3" font-family="Times,serif" font-size="14.00">index</text>
<polyline fill="none" stroke="black" points="16,-464.5 143,-464.5 "/>
<polyline fill="none" stroke="black" points="16,-440.5 143,-440.5 "/>
</g>
<!-- TaquillasController -->
<g id="node8" class="node">
<title>TaquillasController</title>
<path fill="none" stroke="black" d="M508,-256.5C508,-256.5 637,-256.5 637,-256.5 643,-256.5 649,-262.5 649,-268.5 649,-268.5 649,-382.5 649,-382.5 649,-388.5 643,-394.5 637,-394.5 637,-394.5 508,-394.5 508,-394.5 502,-394.5 496,-388.5 496,-382.5 496,-382.5 496,-268.5 496,-268.5 496,-262.5 502,-256.5 508,-256.5"/>
<text text-anchor="middle" x="572.5" y="-379.3" font-family="Times,serif" font-size="14.00">TaquillasController</text>
<polyline fill="none" stroke="black" points="496,-371.5 649,-371.5 "/>
<text text-anchor="start" x="504" y="-356.3" font-family="Times,serif" font-size="14.00">create</text>
<text text-anchor="start" x="504" y="-341.3" font-family="Times,serif" font-size="14.00">index</text>
<text text-anchor="start" x="504" y="-326.3" font-family="Times,serif" font-size="14.00">show</text>
<polyline fill="none" stroke="black" points="496,-318.5 649,-318.5 "/>
<polyline fill="none" stroke="black" points="496,-294.5 649,-294.5 "/>
<text text-anchor="start" x="504" y="-279.3" font-family="Times,serif" font-size="14.00">find_taquillas</text>
<text text-anchor="start" x="504" y="-264.3" font-family="Times,serif" font-size="14.00">taquilla_params</text>
</g>
<!-- TicketsController -->
<g id="node9" class="node">
<title>TicketsController</title>
<path fill="none" stroke="black" d="M92,-80.5C92,-80.5 253,-80.5 253,-80.5 259,-80.5 265,-86.5 265,-92.5 265,-92.5 265,-176.5 265,-176.5 265,-182.5 259,-188.5 253,-188.5 253,-188.5 92,-188.5 92,-188.5 86,-188.5 80,-182.5 80,-176.5 80,-176.5 80,-92.5 80,-92.5 80,-86.5 86,-80.5 92,-80.5"/>
<text text-anchor="middle" x="172.5" y="-173.3" font-family="Times,serif" font-size="14.00">TicketsController</text>
<polyline fill="none" stroke="black" points="80,-165.5 265,-165.5 "/>
<text text-anchor="start" x="88" y="-150.3" font-family="Times,serif" font-size="14.00">index</text>
<polyline fill="none" stroke="black" points="80,-142.5 265,-142.5 "/>
<polyline fill="none" stroke="black" points="80,-118.5 265,-118.5 "/>
<text text-anchor="start" x="88" y="-103.3" font-family="Times,serif" font-size="14.00">check_hibernation_time</text>
<text text-anchor="start" x="88" y="-88.3" font-family="Times,serif" font-size="14.00">tickets_params</text>
</g>
<!-- UsersController -->
<g id="node10" class="node">
<title>UsersController</title>
<path fill="none" stroke="black" d="M188,-368.5C188,-368.5 295,-368.5 295,-368.5 301,-368.5 307,-374.5 307,-380.5 307,-380.5 307,-524.5 307,-524.5 307,-530.5 301,-536.5 295,-536.5 295,-536.5 188,-536.5 188,-536.5 182,-536.5 176,-530.5 176,-524.5 176,-524.5 176,-380.5 176,-380.5 176,-374.5 182,-368.5 188,-368.5"/>
<text text-anchor="middle" x="241.5" y="-521.3" font-family="Times,serif" font-size="14.00">UsersController</text>
<polyline fill="none" stroke="black" points="176,-513.5 307,-513.5 "/>
<text text-anchor="start" x="184" y="-498.3" font-family="Times,serif" font-size="14.00">create</text>
<text text-anchor="start" x="184" y="-483.3" font-family="Times,serif" font-size="14.00">destroy</text>
<text text-anchor="start" x="184" y="-468.3" font-family="Times,serif" font-size="14.00">index</text>
<text text-anchor="start" x="184" y="-453.3" font-family="Times,serif" font-size="14.00">show</text>
<text text-anchor="start" x="184" y="-438.3" font-family="Times,serif" font-size="14.00">update</text>
<polyline fill="none" stroke="black" points="176,-430.5 307,-430.5 "/>
<polyline fill="none" stroke="black" points="176,-406.5 307,-406.5 "/>
<text text-anchor="start" x="184" y="-391.3" font-family="Times,serif" font-size="14.00">find_user</text>
<text text-anchor="start" x="184" y="-376.3" font-family="Times,serif" font-size="14.00">user_params</text>
</g>
<!-- WalletsController -->
<g id="node11" class="node">
<title>WalletsController</title>
<path fill="none" stroke="black" d="M492,-0.5C492,-0.5 610,-0.5 610,-0.5 616,-0.5 622,-6.5 622,-12.5 622,-12.5 622,-82.5 622,-82.5 622,-88.5 616,-94.5 610,-94.5 610,-94.5 492,-94.5 492,-94.5 486,-94.5 480,-88.5 480,-82.5 480,-82.5 480,-12.5 480,-12.5 480,-6.5 486,-0.5 492,-0.5"/>
<text text-anchor="middle" x="551" y="-79.3" font-family="Times,serif" font-size="14.00">WalletsController</text>
<polyline fill="none" stroke="black" points="480,-71.5 622,-71.5 "/>
<text text-anchor="start" x="488" y="-56.3" font-family="Times,serif" font-size="14.00">index</text>
<polyline fill="none" stroke="black" points="480,-48.5 622,-48.5 "/>
<polyline fill="none" stroke="black" points="480,-24.5 622,-24.5 "/>
</g>
</g>
</svg>
