<?xml version="1.0" encoding="UTF-8" standalone="no"?>
<!DOCTYPE svg PUBLIC "-//W3C//DTD SVG 1.1//EN"
 "http://www.w3.org/Graphics/SVG/1.1/DTD/svg11.dtd">
<!-- Generated by graphviz version 2.43.0 (0)
 -->
<!-- Title: models_diagram Pages: 1 -->
<svg width="883pt" height="420pt"
 viewBox="0.00 0.00 883.19 420.00" xmlns="http://www.w3.org/2000/svg" xmlns:xlink="http://www.w3.org/1999/xlink">
<g id="graph0" class="graph" transform="scale(1 1) rotate(0) translate(4 416)">
<title>models_diagram</title>
<polygon fill="transparent" stroke="transparent" points="-4,4 -4,-416 879.19,-416 879.19,4 -4,4"/>
<!-- _diagram_info -->
<g id="node1" class="node">
<title>_diagram_info</title>
<text text-anchor="start" x="8" y="-397.6" font-family="Times,serif" font-size="13.00">Models diagram</text>
<text text-anchor="start" x="8" y="-383.6" font-family="Times,serif" font-size="13.00">Date: Apr 10 2023 &#45; 13:49</text>
<text text-anchor="start" x="8" y="-369.6" font-family="Times,serif" font-size="13.00">Migration version: 20230403071825</text>
<text text-anchor="start" x="8" y="-355.6" font-family="Times,serif" font-size="13.00">Generated by RailRoady 1.6.0</text>
<text text-anchor="start" x="8" y="-341.6" font-family="Times,serif" font-size="13.00">http://railroady.prestonlee.com</text>
</g>
<!-- ApplicationRecord -->
<g id="node2" class="node">
<title>ApplicationRecord</title>
<ellipse fill="none" stroke="black" cx="372.5" cy="-373" rx="95.58" ry="18"/>
<text text-anchor="middle" x="372.5" y="-369.3" font-family="Times,serif" font-size="14.00">ApplicationRecord</text>
</g>
<!-- Rifa -->
<g id="node3" class="node">
<title>Rifa</title>
<ellipse fill="none" stroke="black" cx="515.5" cy="-373" rx="29.5" ry="18"/>
<text text-anchor="middle" x="515.5" y="-369.3" font-family="Times,serif" font-size="14.00">Rifa</text>
</g>
<!-- RifaTicket -->
<g id="node4" class="node">
<title>RifaTicket</title>
<ellipse fill="none" stroke="black" cx="392.5" cy="-279" rx="57.69" ry="18"/>
<text text-anchor="middle" x="392.5" y="-275.3" font-family="Times,serif" font-size="14.00">RifaTicket</text>
</g>
<!-- Rifa&#45;&gt;RifaTicket -->
<g id="edge3" class="edge">
<title>Rifa&#45;&gt;RifaTicket</title>
<path fill="none" stroke="#eb9030" d="M494.43,-349.29C489.11,-344.03 483.27,-338.63 477.5,-334 462.22,-321.75 444.04,-309.88 428.42,-300.41"/>
<polygon fill="#eb9030" stroke="#eb9030" points="494.77,-349.64 498.55,-359.93 498.27,-353.21 501.77,-356.78 501.77,-356.78 501.77,-356.78 498.27,-353.21 504.98,-353.63 494.77,-349.64 494.77,-349.64"/>
<polygon fill="#eb9030" stroke="#eb9030" points="428.15,-300.25 421.87,-291.26 423.85,-297.68 419.56,-295.12 419.56,-295.12 419.56,-295.12 423.85,-297.68 417.25,-298.98 428.15,-300.25 428.15,-300.25"/>
</g>
<!-- Taquilla -->
<g id="node5" class="node">
<title>Taquilla</title>
<ellipse fill="none" stroke="black" cx="515.5" cy="-279" rx="47.39" ry="18"/>
<text text-anchor="middle" x="515.5" y="-275.3" font-family="Times,serif" font-size="14.00">Taquilla</text>
</g>
<!-- Rifa&#45;&gt;Taquilla -->
<g id="edge2" class="edge">
<title>Rifa&#45;&gt;Taquilla</title>
<path fill="none" stroke="#2127f0" d="M515.5,-344.69C515.5,-332.92 515.5,-319.17 515.5,-307.39"/>
<polygon fill="#2127f0" stroke="#2127f0" points="515.5,-344.7 511,-354.7 515.5,-349.7 515.5,-354.7 515.5,-354.7 515.5,-354.7 515.5,-349.7 520,-354.7 515.5,-344.7 515.5,-344.7"/>
<polygon fill="#2127f0" stroke="#2127f0" points="515.5,-307.23 520,-297.23 515.5,-302.23 515.5,-297.23 515.5,-297.23 515.5,-297.23 515.5,-302.23 511,-297.23 515.5,-307.23 515.5,-307.23"/>
</g>
<!-- User -->
<g id="node7" class="node">
<title>User</title>
<ellipse fill="none" stroke="black" cx="515.5" cy="-192" rx="33.29" ry="18"/>
<text text-anchor="middle" x="515.5" y="-188.3" font-family="Times,serif" font-size="14.00">User</text>
</g>
<!-- Rifa&#45;&gt;User -->
<g id="edge1" class="edge">
<title>Rifa&#45;&gt;User</title>
<path fill="none" stroke="#bee615" d="M550.07,-360.07C610.88,-337.26 726.41,-284.67 680.5,-228 665.4,-209.36 602.03,-200.24 558.37,-196.09"/>
<polygon fill="#bee615" stroke="#bee615" points="549.84,-360.15 538.91,-359.38 545.15,-361.88 540.46,-363.6 540.46,-363.6 540.46,-363.6 545.15,-361.88 542.01,-367.82 549.84,-360.15 549.84,-360.15"/>
<polygon fill="#bee615" stroke="#bee615" points="558.24,-196.08 548.68,-190.71 553.26,-195.64 548.28,-195.19 548.28,-195.19 548.28,-195.19 553.26,-195.64 547.88,-199.67 558.24,-196.08 558.24,-196.08"/>
</g>
<!-- Taquilla&#45;&gt;User -->
<g id="edge4" class="edge">
<title>Taquilla&#45;&gt;User</title>
<path fill="none" stroke="#ad7ec7" d="M470.72,-263.5C448.85,-255.96 426.55,-247.43 423.5,-243 407.9,-220.38 442.79,-207.04 473.99,-199.91"/>
<polygon fill="#ad7ec7" stroke="#ad7ec7" points="470.87,-263.55 478.89,-271.02 475.6,-265.15 480.34,-266.76 480.34,-266.76 480.34,-266.76 475.6,-265.15 481.78,-262.5 470.87,-263.55 470.87,-263.55"/>
<polygon fill="#ad7ec7" stroke="#ad7ec7" points="474.14,-199.88 484.85,-202.21 479.03,-198.84 483.92,-197.81 483.92,-197.81 483.92,-197.81 479.03,-198.84 482.99,-193.4 474.14,-199.88 474.14,-199.88"/>
<text text-anchor="middle" x="446" y="-231.8" font-family="Times,serif" font-size="14.00">owner</text>
</g>
<!-- Taquilla&#45;&gt;User -->
<g id="edge5" class="edge">
<title>Taquilla&#45;&gt;User</title>
<path fill="none" stroke="#514aea" d="M499.66,-252.11C498.37,-249.12 497.27,-246.05 496.5,-243 494.39,-234.68 496.28,-225.85 499.55,-217.97"/>
<polygon fill="#514aea" stroke="#514aea" points="499.76,-252.31 500.2,-263.27 501.99,-256.79 504.23,-261.26 504.23,-261.26 504.23,-261.26 501.99,-256.79 508.25,-259.25 499.76,-252.31 499.76,-252.31"/>
<polygon fill="#514aea" stroke="#514aea" points="499.61,-217.86 508.09,-210.92 501.83,-213.39 504.06,-208.91 504.06,-208.91 504.06,-208.91 501.83,-213.39 500.04,-206.9 499.61,-217.86 499.61,-217.86"/>
</g>
<!-- Transaction -->
<g id="node6" class="node">
<title>Transaction</title>
<ellipse fill="none" stroke="black" cx="321.5" cy="-18" rx="65.79" ry="18"/>
<text text-anchor="middle" x="321.5" y="-14.3" font-family="Times,serif" font-size="14.00">Transaction</text>
</g>
<!-- Wallet -->
<g id="node8" class="node">
<title>Wallet</title>
<ellipse fill="none" stroke="black" cx="321.5" cy="-105" rx="40.09" ry="18"/>
<text text-anchor="middle" x="321.5" y="-101.3" font-family="Times,serif" font-size="14.00">Wallet</text>
</g>
<!-- Transaction&#45;&gt;Wallet -->
<g id="edge6" class="edge">
<title>Transaction&#45;&gt;Wallet</title>
<path fill="none" stroke="#1c508c" d="M275.8,-37.97C263.09,-46.19 254.46,-56.75 261.5,-69 266.18,-77.14 273.56,-83.57 281.56,-88.57"/>
<polygon fill="#1c508c" stroke="#1c508c" points="275.94,-37.89 286.85,-36.82 280.28,-35.41 284.61,-32.92 284.61,-32.92 284.61,-32.92 280.28,-35.41 282.38,-29.01 275.94,-37.89 275.94,-37.89"/>
<polygon fill="#1c508c" stroke="#1c508c" points="281.65,-88.61 288.22,-97.39 286.02,-91.03 290.4,-93.45 290.4,-93.45 290.4,-93.45 286.02,-91.03 292.58,-89.51 281.65,-88.61 281.65,-88.61"/>
<text text-anchor="middle" x="311.5" y="-57.8" font-family="Times,serif" font-size="14.00">sender_wallet</text>
</g>
<!-- Transaction&#45;&gt;Wallet -->
<g id="edge7" class="edge">
<title>Transaction&#45;&gt;Wallet</title>
<path fill="none" stroke="#a62342" d="M353.9,-41.67C361.34,-49.73 365.93,-59.23 361.5,-69 359.16,-74.15 355.66,-78.83 351.67,-82.99"/>
<polygon fill="#a62342" stroke="#a62342" points="353.76,-41.54 349.52,-31.43 350.1,-38.13 346.45,-34.72 346.45,-34.72 346.45,-34.72 350.1,-38.13 343.38,-38.01 353.76,-41.54 353.76,-41.54"/>
<polygon fill="#a62342" stroke="#a62342" points="351.52,-83.13 341.1,-86.55 347.82,-86.5 344.13,-89.87 344.13,-89.87 344.13,-89.87 347.82,-86.5 347.17,-93.19 351.52,-83.13 351.52,-83.13"/>
<text text-anchor="middle" x="418" y="-57.8" font-family="Times,serif" font-size="14.00">receiver_wallet</text>
</g>
<!-- User&#45;&gt;Taquilla -->
<g id="edge11" class="edge">
<title>User&#45;&gt;Taquilla</title>
<path fill="none" stroke="#9d7a22" d="M515.5,-220.48C515.5,-230.17 515.5,-241.06 515.5,-250.73"/>
<polygon fill="#9d7a22" stroke="#9d7a22" points="515.5,-220.18 520,-210.18 515.5,-215.18 515.5,-210.18 515.5,-210.18 515.5,-210.18 515.5,-215.18 511,-210.18 515.5,-220.18 515.5,-220.18"/>
<polygon fill="#9d7a22" stroke="#9d7a22" points="515.5,-250.8 511,-260.8 515.5,-255.8 515.5,-260.8 515.5,-260.8 515.5,-260.8 515.5,-255.8 520,-260.8 515.5,-250.8 515.5,-250.8"/>
<text text-anchor="middle" x="573" y="-231.8" font-family="Times,serif" font-size="14.00">owned_taquillas</text>
</g>
<!-- User&#45;&gt;Taquilla -->
<g id="edge12" class="edge">
<title>User&#45;&gt;Taquilla</title>
<path fill="none" stroke="#964e5f" d="M558.97,-193.97C584.49,-197.06 614.91,-205.66 631.5,-228 650.65,-253.78 609.95,-266.42 571.59,-272.53"/>
<polygon fill="#964e5f" stroke="#964e5f" points="558.7,-193.95 549.18,-188.51 553.72,-193.47 548.75,-192.98 548.75,-192.98 548.75,-192.98 553.72,-193.47 548.31,-197.46 558.7,-193.95 558.7,-193.95"/>
<polygon fill="#964e5f" stroke="#964e5f" points="571.31,-272.57 560.76,-269.56 566.36,-273.29 561.41,-274.01 561.41,-274.01 561.41,-274.01 566.36,-273.29 562.06,-278.46 571.31,-272.57 571.31,-272.57"/>
<text text-anchor="middle" x="656.5" y="-231.8" font-family="Times,serif" font-size="14.00">users</text>
</g>
<!-- User&#45;&gt;Wallet -->
<g id="edge10" class="edge">
<title>User&#45;&gt;Wallet</title>
<path fill="none" stroke="#84a7de" d="M481,-175.89C446.61,-160.82 393.95,-137.74 358.65,-122.28"/>
<polygon fill="#84a7de" stroke="#84a7de" points="481.38,-176.05 488.73,-184.18 485.96,-178.06 490.54,-180.06 490.54,-180.06 490.54,-180.06 485.96,-178.06 492.34,-175.94 481.38,-176.05 481.38,-176.05"/>
<polygon fill="#84a7de" stroke="#84a7de" points="358.35,-122.14 350.99,-114.01 353.77,-120.14 349.19,-118.13 349.19,-118.13 349.19,-118.13 353.77,-120.14 347.38,-122.25 358.35,-122.14 358.35,-122.14"/>
</g>
<!-- ActiveStorage::Attachment -->
<g id="node9" class="node">
<title>ActiveStorage::Attachment</title>
<ellipse fill="none" stroke="black" cx="515.5" cy="-105" rx="135.68" ry="18"/>
<text text-anchor="middle" x="515.5" y="-101.3" font-family="Times,serif" font-size="14.00">ActiveStorage::Attachment</text>
</g>
<!-- User&#45;&gt;ActiveStorage::Attachment -->
<g id="edge8" class="edge">
<title>User&#45;&gt;ActiveStorage::Attachment</title>
<path fill="none" stroke="#b01358" d="M515.5,-163.73C515.5,-154.06 515.5,-143.17 515.5,-133.48"/>
<polygon fill="#b01358" stroke="#b01358" points="515.5,-163.8 511,-173.8 515.5,-168.8 515.5,-173.8 515.5,-173.8 515.5,-173.8 515.5,-168.8 520,-173.8 515.5,-163.8 515.5,-163.8"/>
<polygon fill="#b01358" stroke="#b01358" points="515.5,-133.18 520,-123.18 515.5,-128.18 515.5,-123.18 515.5,-123.18 515.5,-123.18 515.5,-128.18 511,-123.18 515.5,-133.18 515.5,-133.18"/>
<text text-anchor="middle" x="583" y="-144.8" font-family="Times,serif" font-size="14.00">avatar_attachment</text>
</g>
<!-- ActiveStorage::Blob -->
<g id="node10" class="node">
<title>ActiveStorage::Blob</title>
<ellipse fill="none" stroke="black" cx="772.5" cy="-105" rx="102.88" ry="18"/>
<text text-anchor="middle" x="772.5" y="-101.3" font-family="Times,serif" font-size="14.00">ActiveStorage::Blob</text>
</g>
<!-- User&#45;&gt;ActiveStorage::Blob -->
<g id="edge9" class="edge">
<title>User&#45;&gt;ActiveStorage::Blob</title>
<path fill="none" stroke="#b62b93" d="M555.82,-182.58C583.82,-176.31 621.83,-166.96 654.5,-156 679.67,-147.55 707.02,-136.12 729.04,-126.31"/>
<polygon fill="#b62b93" stroke="#b62b93" points="555.75,-182.59 545.02,-180.35 550.87,-183.67 545.99,-184.74 545.99,-184.74 545.99,-184.74 550.87,-183.67 546.95,-189.14 555.75,-182.59 555.75,-182.59"/>
<polygon fill="#b62b93" stroke="#b62b93" points="729.33,-126.18 740.29,-126.19 733.89,-124.13 738.45,-122.08 738.45,-122.08 738.45,-122.08 733.89,-124.13 736.6,-117.98 729.33,-126.18 729.33,-126.18"/>
<text text-anchor="middle" x="735.5" y="-144.8" font-family="Times,serif" font-size="14.00">avatar_blob</text>
</g>
<!-- Wallet&#45;&gt;Transaction -->
<g id="edge13" class="edge">
<title>Wallet&#45;&gt;Transaction</title>
<path fill="none" stroke="#371021" d="M360.91,-89.7C364.13,-88.72 367.36,-87.81 370.5,-87 393.64,-81.06 461.08,-87.25 476.5,-69 503.22,-37.36 448.61,-25.55 397,-21.25"/>
<polygon fill="#371021" stroke="#371021" points="360.84,-89.72 349.95,-88.49 356.08,-91.25 351.32,-92.77 351.32,-92.77 351.32,-92.77 356.08,-91.25 352.69,-97.06 360.84,-89.72 360.84,-89.72"/>
<polygon fill="#371021" stroke="#371021" points="396.72,-21.23 387.08,-16 391.73,-20.86 386.74,-20.48 386.74,-20.48 386.74,-20.48 391.73,-20.86 386.41,-24.97 396.72,-21.23 396.72,-21.23"/>
<text text-anchor="middle" x="548" y="-57.8" font-family="Times,serif" font-size="14.00">sent_transactions</text>
</g>
<!-- Wallet&#45;&gt;Transaction -->
<g id="edge14" class="edge">
<title>Wallet&#45;&gt;Transaction</title>
<path fill="none" stroke="#4d5cf4" d="M271.01,-103.4C212.19,-101.5 120.25,-94.43 98.5,-69 94.17,-63.93 94.17,-59.07 98.5,-54 117.36,-31.95 189.04,-23.69 246.11,-20.66"/>
<polygon fill="#4d5cf4" stroke="#4d5cf4" points="271.23,-103.41 281.1,-108.19 276.23,-103.55 281.23,-103.69 281.23,-103.69 281.23,-103.69 276.23,-103.55 281.36,-99.19 271.23,-103.41 271.23,-103.41"/>
<polygon fill="#4d5cf4" stroke="#4d5cf4" points="246.23,-20.65 256.43,-24.66 251.22,-20.41 256.22,-20.17 256.22,-20.17 256.22,-20.17 251.22,-20.41 256,-15.67 246.23,-20.65 246.23,-20.65"/>
<text text-anchor="middle" x="177" y="-57.8" font-family="Times,serif" font-size="14.00">received_transactions</text>
</g>
</g>
</svg>
