<?xml version="1.0" encoding="UTF-8" standalone="no"?>
<!DOCTYPE svg PUBLIC "-//W3C//DTD SVG 1.1//EN"
 "http://www.w3.org/Graphics/SVG/1.1/DTD/svg11.dtd">
<!-- Generated by graphviz version 2.43.0 (0)
 -->
<!-- Title: models_diagram Pages: 1 -->
<svg width="1024pt" height="1288pt"
 viewBox="0.00 0.00 1024.19 1288.00" xmlns="http://www.w3.org/2000/svg" xmlns:xlink="http://www.w3.org/1999/xlink">
<g id="graph0" class="graph" transform="scale(1 1) rotate(0) translate(4 1284)">
<title>models_diagram</title>
<polygon fill="transparent" stroke="transparent" points="-4,4 -4,-1284 1020.19,-1284 1020.19,4 -4,4"/>
<!-- _diagram_info -->
<g id="node1" class="node">
<title>_diagram_info</title>
<text text-anchor="start" x="8" y="-1138.6" font-family="Times,serif" font-size="13.00">Models diagram</text>
<text text-anchor="start" x="8" y="-1124.6" font-family="Times,serif" font-size="13.00">Date: Apr 10 2023 &#45; 13:49</text>
<text text-anchor="start" x="8" y="-1110.6" font-family="Times,serif" font-size="13.00">Migration version: 20230403071825</text>
<text text-anchor="start" x="8" y="-1096.6" font-family="Times,serif" font-size="13.00">Generated by RailRoady 1.6.0</text>
<text text-anchor="start" x="8" y="-1082.6" font-family="Times,serif" font-size="13.00">http://railroady.prestonlee.com</text>
</g>
<!-- ApplicationRecord -->
<g id="node2" class="node">
<title>ApplicationRecord</title>
<ellipse fill="none" stroke="black" cx="372.5" cy="-1114" rx="95.58" ry="18"/>
<text text-anchor="middle" x="372.5" y="-1110.3" font-family="Times,serif" font-size="14.00">ApplicationRecord</text>
</g>
<!-- Rifa -->
<g id="node3" class="node">
<title>Rifa</title>
<path fill="none" stroke="black" d="M498,-948.5C498,-948.5 809,-948.5 809,-948.5 815,-948.5 821,-954.5 821,-960.5 821,-960.5 821,-1267.5 821,-1267.5 821,-1273.5 815,-1279.5 809,-1279.5 809,-1279.5 498,-1279.5 498,-1279.5 492,-1279.5 486,-1273.5 486,-1267.5 486,-1267.5 486,-960.5 486,-960.5 486,-954.5 492,-948.5 498,-948.5"/>
<text text-anchor="middle" x="653.5" y="-1264.3" font-family="Times,serif" font-size="14.00">Rifa</text>
<polyline fill="none" stroke="black" points="486,-1256.5 821,-1256.5 "/>
<text text-anchor="start" x="494" y="-1241.3" font-family="Times,serif" font-size="14.00">id :bigint</text>
<text text-anchor="start" x="494" y="-1226.3" font-family="Times,serif" font-size="14.00">awardSign :character varying</text>
<text text-anchor="start" x="494" y="-1211.3" font-family="Times,serif" font-size="14.00">awardNoSign :character varying</text>
<text text-anchor="start" x="494" y="-1196.3" font-family="Times,serif" font-size="14.00">is_send :boolean</text>
<text text-anchor="start" x="494" y="-1181.3" font-family="Times,serif" font-size="14.00">rifDate :date</text>
<text text-anchor="start" x="494" y="-1166.3" font-family="Times,serif" font-size="14.00">expired :date</text>
<text text-anchor="start" x="494" y="-1151.3" font-family="Times,serif" font-size="14.00">money :character varying</text>
<text text-anchor="start" x="494" y="-1136.3" font-family="Times,serif" font-size="14.00">loteria :character varying</text>
<text text-anchor="start" x="494" y="-1121.3" font-family="Times,serif" font-size="14.00">price :double precision</text>
<text text-anchor="start" x="494" y="-1106.3" font-family="Times,serif" font-size="14.00">pin :character varying</text>
<text text-anchor="start" x="494" y="-1091.3" font-family="Times,serif" font-size="14.00">serial :character varying</text>
<text text-anchor="start" x="494" y="-1076.3" font-family="Times,serif" font-size="14.00">verify :boolean</text>
<text text-anchor="start" x="494" y="-1061.3" font-family="Times,serif" font-size="14.00">plate :character varying</text>
<text text-anchor="start" x="494" y="-1046.3" font-family="Times,serif" font-size="14.00">numbers :integer</text>
<text text-anchor="start" x="494" y="-1031.3" font-family="Times,serif" font-size="14.00">tickets_type :character varying</text>
<text text-anchor="start" x="494" y="-1016.3" font-family="Times,serif" font-size="14.00">year :integer</text>
<text text-anchor="start" x="494" y="-1001.3" font-family="Times,serif" font-size="14.00">taquillas_ids :integer</text>
<text text-anchor="start" x="494" y="-986.3" font-family="Times,serif" font-size="14.00">user_id :bigint</text>
<text text-anchor="start" x="494" y="-971.3" font-family="Times,serif" font-size="14.00">created_at :timestamp(6) without time zone</text>
<text text-anchor="start" x="494" y="-956.3" font-family="Times,serif" font-size="14.00">updated_at :timestamp(6) without time zone</text>
</g>
<!-- RifaTicket -->
<g id="node4" class="node">
<title>RifaTicket</title>
<path fill="none" stroke="black" d="M145,-729.5C145,-729.5 456,-729.5 456,-729.5 462,-729.5 468,-735.5 468,-741.5 468,-741.5 468,-898.5 468,-898.5 468,-904.5 462,-910.5 456,-910.5 456,-910.5 145,-910.5 145,-910.5 139,-910.5 133,-904.5 133,-898.5 133,-898.5 133,-741.5 133,-741.5 133,-735.5 139,-729.5 145,-729.5"/>
<text text-anchor="middle" x="300.5" y="-895.3" font-family="Times,serif" font-size="14.00">RifaTicket</text>
<polyline fill="none" stroke="black" points="133,-887.5 468,-887.5 "/>
<text text-anchor="start" x="141" y="-872.3" font-family="Times,serif" font-size="14.00">id :bigint</text>
<text text-anchor="start" x="141" y="-857.3" font-family="Times,serif" font-size="14.00">sign :character varying</text>
<text text-anchor="start" x="141" y="-842.3" font-family="Times,serif" font-size="14.00">number :integer</text>
<text text-anchor="start" x="141" y="-827.3" font-family="Times,serif" font-size="14.00">ticket_nro :integer</text>
<text text-anchor="start" x="141" y="-812.3" font-family="Times,serif" font-size="14.00">serial :character varying</text>
<text text-anchor="start" x="141" y="-797.3" font-family="Times,serif" font-size="14.00">is_sold :boolean</text>
<text text-anchor="start" x="141" y="-782.3" font-family="Times,serif" font-size="14.00">sold_at :character varying</text>
<text text-anchor="start" x="141" y="-767.3" font-family="Times,serif" font-size="14.00">rifa_id :bigint</text>
<text text-anchor="start" x="141" y="-752.3" font-family="Times,serif" font-size="14.00">created_at :timestamp(6) without time zone</text>
<text text-anchor="start" x="141" y="-737.3" font-family="Times,serif" font-size="14.00">updated_at :timestamp(6) without time zone</text>
</g>
<!-- Rifa&#45;&gt;RifaTicket -->
<g id="edge3" class="edge">
<title>Rifa&#45;&gt;RifaTicket</title>
<path fill="none" stroke="#947096" d="M478.02,-948.42C477.84,-948.28 477.67,-948.14 477.5,-948 464.8,-937.56 451.3,-927.01 437.66,-916.68"/>
<polygon fill="#947096" stroke="#947096" points="478.09,-948.48 482.91,-958.33 481.94,-951.68 485.78,-954.87 485.78,-954.87 485.78,-954.87 481.94,-951.68 488.66,-951.41 478.09,-948.48 478.09,-948.48"/>
<polygon fill="#947096" stroke="#947096" points="437.6,-916.64 432.31,-907.03 433.61,-913.63 429.61,-910.62 429.61,-910.62 429.61,-910.62 433.61,-913.63 426.9,-914.22 437.6,-916.64 437.6,-916.64"/>
</g>
<!-- Taquilla -->
<g id="node5" class="node">
<title>Taquilla</title>
<path fill="none" stroke="black" d="M498,-744.5C498,-744.5 809,-744.5 809,-744.5 815,-744.5 821,-750.5 821,-756.5 821,-756.5 821,-883.5 821,-883.5 821,-889.5 815,-895.5 809,-895.5 809,-895.5 498,-895.5 498,-895.5 492,-895.5 486,-889.5 486,-883.5 486,-883.5 486,-756.5 486,-756.5 486,-750.5 492,-744.5 498,-744.5"/>
<text text-anchor="middle" x="653.5" y="-880.3" font-family="Times,serif" font-size="14.00">Taquilla</text>
<polyline fill="none" stroke="black" points="486,-872.5 821,-872.5 "/>
<text text-anchor="start" x="494" y="-857.3" font-family="Times,serif" font-size="14.00">id :bigint</text>
<text text-anchor="start" x="494" y="-842.3" font-family="Times,serif" font-size="14.00">name :character varying</text>
<text text-anchor="start" x="494" y="-827.3" font-family="Times,serif" font-size="14.00">apikey :character varying</text>
<text text-anchor="start" x="494" y="-812.3" font-family="Times,serif" font-size="14.00">system :character varying</text>
<text text-anchor="start" x="494" y="-797.3" font-family="Times,serif" font-size="14.00">owner_id :integer</text>
<text text-anchor="start" x="494" y="-782.3" font-family="Times,serif" font-size="14.00">users_ids :integer</text>
<text text-anchor="start" x="494" y="-767.3" font-family="Times,serif" font-size="14.00">created_at :timestamp(6) without time zone</text>
<text text-anchor="start" x="494" y="-752.3" font-family="Times,serif" font-size="14.00">updated_at :timestamp(6) without time zone</text>
</g>
<!-- Rifa&#45;&gt;Taquilla -->
<g id="edge2" class="edge">
<title>Rifa&#45;&gt;Taquilla</title>
<path fill="none" stroke="#61fe9d" d="M653.5,-937.94C653.5,-926.87 653.5,-916.02 653.5,-905.68"/>
<polygon fill="#61fe9d" stroke="#61fe9d" points="653.5,-938.23 649,-948.23 653.5,-943.23 653.5,-948.23 653.5,-948.23 653.5,-948.23 653.5,-943.23 658,-948.23 653.5,-938.23 653.5,-938.23"/>
<polygon fill="#61fe9d" stroke="#61fe9d" points="653.5,-905.52 658,-895.52 653.5,-900.52 653.5,-895.52 653.5,-895.52 653.5,-895.52 653.5,-900.52 649,-895.52 653.5,-905.52 653.5,-905.52"/>
</g>
<!-- User -->
<g id="node7" class="node">
<title>User</title>
<path fill="none" stroke="black" d="M501,-451.5C501,-451.5 812,-451.5 812,-451.5 818,-451.5 824,-457.5 824,-463.5 824,-463.5 824,-665.5 824,-665.5 824,-671.5 818,-677.5 812,-677.5 812,-677.5 501,-677.5 501,-677.5 495,-677.5 489,-671.5 489,-665.5 489,-665.5 489,-463.5 489,-463.5 489,-457.5 495,-451.5 501,-451.5"/>
<text text-anchor="middle" x="656.5" y="-662.3" font-family="Times,serif" font-size="14.00">User</text>
<polyline fill="none" stroke="black" points="489,-654.5 824,-654.5 "/>
<text text-anchor="start" x="497" y="-639.3" font-family="Times,serif" font-size="14.00">id :bigint</text>
<text text-anchor="start" x="497" y="-624.3" font-family="Times,serif" font-size="14.00">avatar :character varying</text>
<text text-anchor="start" x="497" y="-609.3" font-family="Times,serif" font-size="14.00">name :character varying</text>
<text text-anchor="start" x="497" y="-594.3" font-family="Times,serif" font-size="14.00">username :character varying</text>
<text text-anchor="start" x="497" y="-579.3" font-family="Times,serif" font-size="14.00">role :character varying</text>
<text text-anchor="start" x="497" y="-564.3" font-family="Times,serif" font-size="14.00">cedula :character varying</text>
<text text-anchor="start" x="497" y="-549.3" font-family="Times,serif" font-size="14.00">email :character varying</text>
<text text-anchor="start" x="497" y="-534.3" font-family="Times,serif" font-size="14.00">phone :character varying</text>
<text text-anchor="start" x="497" y="-519.3" font-family="Times,serif" font-size="14.00">password_digest :character varying</text>
<text text-anchor="start" x="497" y="-504.3" font-family="Times,serif" font-size="14.00">deleted_at :timestamp(6) without time zone</text>
<text text-anchor="start" x="497" y="-489.3" font-family="Times,serif" font-size="14.00">slug :character varying</text>
<text text-anchor="start" x="497" y="-474.3" font-family="Times,serif" font-size="14.00">created_at :timestamp(6) without time zone</text>
<text text-anchor="start" x="497" y="-459.3" font-family="Times,serif" font-size="14.00">updated_at :timestamp(6) without time zone</text>
</g>
<!-- Rifa&#45;&gt;User -->
<g id="edge1" class="edge">
<title>Rifa&#45;&gt;User</title>
<path fill="none" stroke="#d85aae" d="M817.64,-939.49C822.53,-930.19 826.86,-920.67 830.5,-911 864.18,-821.47 874.23,-775.14 820.5,-696 818.09,-692.44 815.55,-688.94 812.89,-685.49"/>
<polygon fill="#d85aae" stroke="#d85aae" points="817.59,-939.58 808.85,-946.19 815.19,-943.97 812.79,-948.35 812.79,-948.35 812.79,-948.35 815.19,-943.97 816.74,-950.51 817.59,-939.58 817.59,-939.58"/>
<polygon fill="#d85aae" stroke="#d85aae" points="812.77,-685.33 810.03,-674.71 809.65,-681.43 806.52,-677.53 806.52,-677.53 806.52,-677.53 809.65,-681.43 803.01,-680.34 812.77,-685.33 812.77,-685.33"/>
</g>
<!-- Taquilla&#45;&gt;User -->
<g id="edge4" class="edge">
<title>Taquilla&#45;&gt;User</title>
<path fill="none" stroke="#4fd106" d="M566.51,-735.03C561.64,-722.58 560.25,-709.41 564.5,-696 565.45,-692.99 566.5,-689.99 567.64,-687.01"/>
<polygon fill="#4fd106" stroke="#4fd106" points="566.65,-735.33 566.79,-746.29 568.76,-739.86 570.87,-744.39 570.87,-744.39 570.87,-744.39 568.76,-739.86 574.95,-742.49 566.65,-735.33 566.65,-735.33"/>
<polygon fill="#4fd106" stroke="#4fd106" points="567.74,-686.78 575.71,-679.26 569.65,-682.16 571.56,-677.54 571.56,-677.54 571.56,-677.54 569.65,-682.16 567.4,-675.82 567.74,-686.78 567.74,-686.78"/>
<text text-anchor="middle" x="587" y="-699.8" font-family="Times,serif" font-size="14.00">owner</text>
</g>
<!-- Taquilla&#45;&gt;User -->
<g id="edge5" class="edge">
<title>Taquilla&#45;&gt;User</title>
<path fill="none" stroke="#121476" d="M639.74,-734.28C638.83,-726.43 638.06,-718.58 637.5,-711 636.95,-703.49 636.77,-695.78 636.9,-688.01"/>
<polygon fill="#121476" stroke="#121476" points="639.75,-734.29 636.5,-744.76 640.36,-739.25 640.97,-744.21 640.97,-744.21 640.97,-744.21 640.36,-739.25 645.43,-743.66 639.75,-734.29 639.75,-734.29"/>
<polygon fill="#121476" stroke="#121476" points="636.91,-687.77 641.73,-677.92 637.07,-682.77 637.24,-677.77 637.24,-677.77 637.24,-677.77 637.07,-682.77 632.74,-677.62 636.91,-687.77 636.91,-687.77"/>
</g>
<!-- Transaction -->
<g id="node6" class="node">
<title>Transaction</title>
<path fill="none" stroke="black" d="M180,-0.5C180,-0.5 491,-0.5 491,-0.5 497,-0.5 503,-6.5 503,-12.5 503,-12.5 503,-169.5 503,-169.5 503,-175.5 497,-181.5 491,-181.5 491,-181.5 180,-181.5 180,-181.5 174,-181.5 168,-175.5 168,-169.5 168,-169.5 168,-12.5 168,-12.5 168,-6.5 174,-0.5 180,-0.5"/>
<text text-anchor="middle" x="335.5" y="-166.3" font-family="Times,serif" font-size="14.00">Transaction</text>
<polyline fill="none" stroke="black" points="168,-158.5 503,-158.5 "/>
<text text-anchor="start" x="176" y="-143.3" font-family="Times,serif" font-size="14.00">id :bigint</text>
<text text-anchor="start" x="176" y="-128.3" font-family="Times,serif" font-size="14.00">reason :character varying</text>
<text text-anchor="start" x="176" y="-113.3" font-family="Times,serif" font-size="14.00">transaction_type :character varying</text>
<text text-anchor="start" x="176" y="-98.3" font-family="Times,serif" font-size="14.00">reference :character varying</text>
<text text-anchor="start" x="176" y="-83.3" font-family="Times,serif" font-size="14.00">amount :double precision</text>
<text text-anchor="start" x="176" y="-68.3" font-family="Times,serif" font-size="14.00">status :character varying</text>
<text text-anchor="start" x="176" y="-53.3" font-family="Times,serif" font-size="14.00">sender_wallet_id :integer</text>
<text text-anchor="start" x="176" y="-38.3" font-family="Times,serif" font-size="14.00">receiver_wallet_id :integer</text>
<text text-anchor="start" x="176" y="-23.3" font-family="Times,serif" font-size="14.00">created_at :timestamp(6) without time zone</text>
<text text-anchor="start" x="176" y="-8.3" font-family="Times,serif" font-size="14.00">updated_at :timestamp(6) without time zone</text>
</g>
<!-- Wallet -->
<g id="node8" class="node">
<title>Wallet</title>
<path fill="none" stroke="black" d="M180,-233.5C180,-233.5 491,-233.5 491,-233.5 497,-233.5 503,-239.5 503,-245.5 503,-245.5 503,-387.5 503,-387.5 503,-393.5 497,-399.5 491,-399.5 491,-399.5 180,-399.5 180,-399.5 174,-399.5 168,-393.5 168,-387.5 168,-387.5 168,-245.5 168,-245.5 168,-239.5 174,-233.5 180,-233.5"/>
<text text-anchor="middle" x="335.5" y="-384.3" font-family="Times,serif" font-size="14.00">Wallet</text>
<polyline fill="none" stroke="black" points="168,-376.5 503,-376.5 "/>
<text text-anchor="start" x="176" y="-361.3" font-family="Times,serif" font-size="14.00">id :bigint</text>
<text text-anchor="start" x="176" y="-346.3" font-family="Times,serif" font-size="14.00">balance :double precision</text>
<text text-anchor="start" x="176" y="-331.3" font-family="Times,serif" font-size="14.00">debt :double precision</text>
<text text-anchor="start" x="176" y="-316.3" font-family="Times,serif" font-size="14.00">debt_limit :double precision</text>
<text text-anchor="start" x="176" y="-301.3" font-family="Times,serif" font-size="14.00">balance_limit :double precision</text>
<text text-anchor="start" x="176" y="-286.3" font-family="Times,serif" font-size="14.00">api_key :character varying</text>
<text text-anchor="start" x="176" y="-271.3" font-family="Times,serif" font-size="14.00">user_id :bigint</text>
<text text-anchor="start" x="176" y="-256.3" font-family="Times,serif" font-size="14.00">created_at :timestamp(6) without time zone</text>
<text text-anchor="start" x="176" y="-241.3" font-family="Times,serif" font-size="14.00">updated_at :timestamp(6) without time zone</text>
</g>
<!-- Transaction&#45;&gt;Wallet -->
<g id="edge6" class="edge">
<title>Transaction&#45;&gt;Wallet</title>
<path fill="none" stroke="#d994bb" d="M273.55,-191.43C272.83,-199.28 273.35,-207.19 275.5,-215 276.32,-217.99 277.26,-220.98 278.3,-223.96"/>
<polygon fill="#d994bb" stroke="#d994bb" points="273.56,-191.41 279.55,-182.23 274.33,-186.47 275.11,-181.53 275.11,-181.53 275.11,-181.53 274.33,-186.47 270.66,-180.84 273.56,-191.41 273.56,-191.41"/>
<polygon fill="#d994bb" stroke="#d994bb" points="278.35,-224.09 277.73,-235.04 280.14,-228.76 281.93,-233.43 281.93,-233.43 281.93,-233.43 280.14,-228.76 286.13,-231.82 278.35,-224.09 278.35,-224.09"/>
<text text-anchor="middle" x="325.5" y="-203.8" font-family="Times,serif" font-size="14.00">sender_wallet</text>
</g>
<!-- Transaction&#45;&gt;Wallet -->
<g id="edge7" class="edge">
<title>Transaction&#45;&gt;Wallet</title>
<path fill="none" stroke="#691bd8" d="M376.8,-191.87C377.3,-199.64 376.96,-207.41 375.5,-215 374.95,-217.85 374.33,-220.73 373.63,-223.61"/>
<polygon fill="#691bd8" stroke="#691bd8" points="376.77,-191.61 380.15,-181.18 376.22,-186.64 375.68,-181.67 375.68,-181.67 375.68,-181.67 376.22,-186.64 371.2,-182.16 376.77,-191.61 376.77,-191.61"/>
<polygon fill="#691bd8" stroke="#691bd8" points="373.59,-223.77 366.67,-232.28 372.31,-228.6 371.02,-233.43 371.02,-233.43 371.02,-233.43 372.31,-228.6 375.37,-234.59 373.59,-223.77 373.59,-223.77"/>
<text text-anchor="middle" x="432" y="-203.8" font-family="Times,serif" font-size="14.00">receiver_wallet</text>
</g>
<!-- User&#45;&gt;Taquilla -->
<g id="edge11" class="edge">
<title>User&#45;&gt;Taquilla</title>
<path fill="none" stroke="#15a642" d="M655.05,-687.95C654.87,-703.57 654.68,-719.27 654.5,-734.11"/>
<polygon fill="#15a642" stroke="#15a642" points="655.05,-687.71 659.67,-677.77 655.11,-682.71 655.17,-677.72 655.17,-677.72 655.17,-677.72 655.11,-682.71 650.67,-677.66 655.05,-687.71 655.05,-687.71"/>
<polygon fill="#15a642" stroke="#15a642" points="654.5,-734.31 649.88,-744.26 654.44,-739.31 654.38,-744.31 654.38,-744.31 654.38,-744.31 654.44,-739.31 658.88,-744.37 654.5,-734.31 654.5,-734.31"/>
<text text-anchor="middle" x="712" y="-699.8" font-family="Times,serif" font-size="14.00">owned_taquillas</text>
</g>
<!-- User&#45;&gt;Taquilla -->
<g id="edge12" class="edge">
<title>User&#45;&gt;Taquilla</title>
<path fill="none" stroke="#1ad3e1" d="M777.39,-688.1C777.43,-695.63 775.92,-703.28 772.5,-711 768.6,-719.8 763.59,-728.2 757.84,-736.13"/>
<polygon fill="#1ad3e1" stroke="#1ad3e1" points="777.37,-687.87 780.88,-677.48 776.89,-682.89 776.41,-677.92 776.41,-677.92 776.41,-677.92 776.89,-682.89 771.93,-678.35 777.37,-687.87 777.37,-687.87"/>
<polygon fill="#1ad3e1" stroke="#1ad3e1" points="757.7,-736.31 748.03,-741.48 754.65,-740.27 751.59,-744.23 751.59,-744.23 751.59,-744.23 754.65,-740.27 755.16,-746.98 757.7,-736.31 757.7,-736.31"/>
<text text-anchor="middle" x="796.5" y="-699.8" font-family="Times,serif" font-size="14.00">users</text>
</g>
<!-- User&#45;&gt;Wallet -->
<g id="edge10" class="edge">
<title>User&#45;&gt;Wallet</title>
<path fill="none" stroke="#b547f2" d="M502.11,-445.19C484.88,-431.98 467.55,-418.7 450.92,-405.96"/>
<polygon fill="#b547f2" stroke="#b547f2" points="502.15,-445.22 507.35,-454.87 506.12,-448.26 510.09,-451.3 510.09,-451.3 510.09,-451.3 506.12,-448.26 512.83,-447.73 502.15,-445.22 502.15,-445.22"/>
<polygon fill="#b547f2" stroke="#b547f2" points="450.76,-405.83 445.56,-396.18 446.79,-402.79 442.82,-399.75 442.82,-399.75 442.82,-399.75 446.79,-402.79 440.09,-403.32 450.76,-405.83 450.76,-405.83"/>
</g>
<!-- ActiveStorage::Attachment -->
<g id="node9" class="node">
<title>ActiveStorage::Attachment</title>
<ellipse fill="none" stroke="black" cx="656.5" cy="-316.5" rx="135.68" ry="18"/>
<text text-anchor="middle" x="656.5" y="-312.8" font-family="Times,serif" font-size="14.00">ActiveStorage::Attachment</text>
</g>
<!-- User&#45;&gt;ActiveStorage::Attachment -->
<g id="edge8" class="edge">
<title>User&#45;&gt;ActiveStorage::Attachment</title>
<path fill="none" stroke="#be91e9" d="M656.5,-441.23C656.5,-404.89 656.5,-368.46 656.5,-344.64"/>
<polygon fill="#be91e9" stroke="#be91e9" points="656.5,-441.3 652,-451.3 656.5,-446.3 656.5,-451.3 656.5,-451.3 656.5,-451.3 656.5,-446.3 661,-451.3 656.5,-441.3 656.5,-441.3"/>
<polygon fill="#be91e9" stroke="#be91e9" points="656.5,-344.63 661,-334.63 656.5,-339.63 656.5,-334.63 656.5,-334.63 656.5,-334.63 656.5,-339.63 652,-334.63 656.5,-344.63 656.5,-344.63"/>
<text text-anchor="middle" x="724" y="-421.8" font-family="Times,serif" font-size="14.00">avatar_attachment</text>
</g>
<!-- ActiveStorage::Blob -->
<g id="node10" class="node">
<title>ActiveStorage::Blob</title>
<ellipse fill="none" stroke="black" cx="913.5" cy="-316.5" rx="102.88" ry="18"/>
<text text-anchor="middle" x="913.5" y="-312.8" font-family="Times,serif" font-size="14.00">ActiveStorage::Blob</text>
</g>
<!-- User&#45;&gt;ActiveStorage::Blob -->
<g id="edge9" class="edge">
<title>User&#45;&gt;ActiveStorage::Blob</title>
<path fill="none" stroke="#23b019" d="M783.97,-444.02C787.86,-440.31 791.71,-436.63 795.5,-433 828.18,-401.67 865.44,-365.05 889.2,-341.58"/>
<polygon fill="#23b019" stroke="#23b019" points="783.69,-444.29 773.34,-447.93 780.07,-447.74 776.45,-451.19 776.45,-451.19 776.45,-451.19 780.07,-447.74 779.55,-454.45 783.69,-444.29 783.69,-444.29"/>
<polygon fill="#23b019" stroke="#23b019" points="889.3,-341.48 899.58,-337.65 892.86,-337.96 896.41,-334.45 896.41,-334.45 896.41,-334.45 892.86,-337.96 893.25,-331.25 889.3,-341.48 889.3,-341.48"/>
<text text-anchor="middle" x="849.5" y="-421.8" font-family="Times,serif" font-size="14.00">avatar_blob</text>
</g>
<!-- Wallet&#45;&gt;Transaction -->
<g id="edge13" class="edge">
<title>Wallet&#45;&gt;Transaction</title>
<path fill="none" stroke="#7b73fb" d="M484.19,-225.32C486.46,-221.98 488.57,-218.54 490.5,-215 494.95,-206.8 496.72,-198.96 496.32,-191.49"/>
<polygon fill="#7b73fb" stroke="#7b73fb" points="484.16,-225.35 474.6,-230.72 481.19,-229.37 478.22,-233.39 478.22,-233.39 478.22,-233.39 481.19,-229.37 481.84,-236.07 484.16,-225.35 484.16,-225.35"/>
<polygon fill="#7b73fb" stroke="#7b73fb" points="496.29,-191.37 498.89,-180.72 495.38,-186.45 494.47,-181.54 494.47,-181.54 494.47,-181.54 495.38,-186.45 490.05,-182.36 496.29,-191.37 496.29,-191.37"/>
<text text-anchor="middle" x="560" y="-203.8" font-family="Times,serif" font-size="14.00">sent_transactions</text>
</g>
<!-- Wallet&#45;&gt;Transaction -->
<g id="edge14" class="edge">
<title>Wallet&#45;&gt;Transaction</title>
<path fill="none" stroke="#c73460" d="M159.23,-261.11C140.82,-248.72 124.49,-233.56 112.5,-215 88.98,-178.6 116.17,-152.04 158.68,-133.12"/>
<polygon fill="#c73460" stroke="#c73460" points="159.4,-261.22 165.4,-270.4 163.61,-263.91 167.83,-266.61 167.83,-266.61 167.83,-266.61 163.61,-263.91 170.25,-262.82 159.4,-261.22 159.4,-261.22"/>
<polygon fill="#c73460" stroke="#c73460" points="158.76,-133.09 169.72,-133.35 163.37,-131.14 167.97,-129.2 167.97,-129.2 167.97,-129.2 163.37,-131.14 166.22,-125.05 158.76,-133.09 158.76,-133.09"/>
<text text-anchor="middle" x="191" y="-203.8" font-family="Times,serif" font-size="14.00">received_transactions</text>
</g>
</g>
</svg>
